<?xml version="1.0" encoding="utf-8"?>

<!DOCTYPE svg PUBLIC "-//W3C//DTD SVG 1.1//EN" "http://www.w3.org/Graphics/SVG/1.1/DTD/svg11.dtd">
<!-- Uploaded to: SVG Repo, www.svgrepo.com, Generator: SVG Repo Mixer Tools -->
<svg height="800px" width="800px" version="1.1" id="_x32_" xmlns="http://www.w3.org/2000/svg" xmlns:xlink="http://www.w3.org/1999/xlink" 
	 viewBox="0 0 512 512"  xml:space="preserve">
<style type="text/css">
	.st0{fill:#000000;}
</style>
<g>
	<path class="st0" d="M0,204.883V307.12c0,21.22,17.212,38.437,38.442,38.437h71.582V166.446H38.442
		C17.212,166.446,0,183.653,0,204.883z"/>
	<path class="st0" d="M288.033,94.716c-3.872-2.382-8.696-2.568-12.744-0.517l-142.237,72.246v179.112l142.237,72.246
		c4.048,2.051,8.872,1.856,12.744-0.517c3.872-2.373,6.226-6.582,6.226-11.123V105.839
		C294.259,101.298,291.905,97.089,288.033,94.716z"/>
	<path class="st0" d="M453.117,253.467l54.386-54.394c5.996-5.996,5.996-15.713,0-21.709c-5.996-5.996-15.713-5.996-21.709,0
		l-54.386,54.385l-54.394-54.385c-5.997-5.996-15.713-5.996-21.709,0c-5.997,5.996-5.997,15.713,0,21.709l54.384,54.394
		l-54.384,54.385c-5.997,5.996-5.997,15.713,0,21.709c5.996,5.996,15.712,5.996,21.709,0l54.394-54.386l54.386,54.386
		c5.996,5.996,15.713,5.996,21.709,0c5.996-5.996,5.996-15.713,0-21.709L453.117,253.467z"/>
</g>
</svg>