<?xml version="1.0" encoding="iso-8859-1"?>
<!-- Generator: Adobe Illustrator 16.0.0, SVG Export Plug-In . SVG Version: 6.00 Build 0)  -->
<!DOCTYPE svg PUBLIC "-//W3C//DTD SVG 1.1//EN" "http://www.w3.org/Graphics/SVG/1.1/DTD/svg11.dtd">
<svg version="1.1" id="Capa_1" xmlns="http://www.w3.org/2000/svg" xmlns:xlink="http://www.w3.org/1999/xlink" x="0px" y="0px"
	 width="478.125px" height="478.125px" viewBox="0 0 478.125 478.125" style="enable-background:new 0 0 478.125 478.125;"
	 xml:space="preserve">
<g>
	<g>
		<g>
			<path d="M201.654,127.525h-31.9c-10.557,0-19.125,8.645-19.125,19.125v184.9c0,10.558,8.645,19.125,19.125,19.125h31.9
				c10.557,0,19.125-8.645,19.125-19.125v-184.9C220.779,136.094,212.211,127.525,201.654,127.525z"/>
			<path d="M308.448,127.525h-31.9c-10.558,0-19.125,8.645-19.125,19.125v184.9c0,10.558,8.645,19.125,19.125,19.125h31.9
				c10.557,0,19.125-8.645,19.125-19.125v-184.9C327.573,136.094,318.929,127.525,308.448,127.525z"/>
			<path d="M239.062,0C107.023,0,0,107.023,0,239.062s107.023,239.062,239.062,239.062s239.062-107.023,239.062-239.062
				S371.102,0,239.062,0z M239.292,409.811c-94.171,0-170.519-76.424-170.519-170.519S145.197,68.773,239.292,68.773
				c94.095,0,170.519,76.424,170.519,170.519S333.54,409.811,239.292,409.811z"/>
		</g>
	</g>
</g>
<g>
</g>
<g>
</g>
<g>
</g>
<g>
</g>
<g>
</g>
<g>
</g>
<g>
</g>
<g>
</g>
<g>
</g>
<g>
</g>
<g>
</g>
<g>
</g>
<g>
</g>
<g>
</g>
<g>
</g>
</svg>
